<?xml version="1.0" encoding="UTF-8"?>
<svg version="1.1" xmlns="http://www.w3.org/2000/svg" width="168" height="169">
<path d="M0 0 C7.44720501 5.3918832 11.42094459 11.12630089 14 20 C15.06427752 29.64037432 14.07078419 38.69983899 8.046875 46.54296875 C2.39305848 52.60204135 -4.08995214 57.06723254 -12.60180664 57.45410156 C-14.20472938 57.45348079 -15.80775815 57.43163749 -17.41015625 57.390625 C-18.68952309 57.38213531 -18.68952309 57.38213531 -19.99473572 57.37347412 C-22.68459305 57.3513129 -25.37305416 57.30115859 -28.0625 57.25 C-29.90037121 57.22990866 -31.73826357 57.21166254 -33.57617188 57.1953125 C-38.05130866 57.15151514 -42.52541871 57.08263308 -47 57 C-47.1948398 52.78707055 -47.37309872 48.5738349 -47.53710938 44.35961914 C-47.59491367 42.9310502 -47.65696778 41.50264577 -47.72363281 40.07446289 C-48.31969799 27.2003581 -48.36060222 15.54323731 -40 5 C-37.52911524 2.58016658 -34.98868446 0.73149405 -32 -1 C-31.41863281 -1.33902344 -30.83726563 -1.67804687 -30.23828125 -2.02734375 C-21.05875207 -6.34829349 -8.40672647 -5.60448431 0 0 Z " fill="#429775" transform="translate(138,24)"/>
<path d="M0 0 C1.29210136 0.00212242 1.29210136 0.00212242 2.61030579 0.00428772 C5.36133294 0.00988485 8.11227869 0.02243679 10.86328125 0.03515625 C12.72851445 0.04017162 14.59374892 0.04473446 16.45898438 0.04882812 C21.03128136 0.05985333 25.6035175 0.07711598 30.17578125 0.09765625 C30.27546171 5.32627956 30.34762872 10.55433669 30.39550781 15.78369141 C30.41548964 17.55852914 30.4426848 19.33330219 30.47753906 21.10791016 C30.8690565 41.57045411 30.8690565 41.57045411 24.31640625 50.68359375 C15.76823734 58.7725635 8.28119978 61.51142538 -3.44140625 61.3671875 C-12.75069202 60.62545457 -19.70506548 55.99106973 -25.82421875 49.09765625 C-31.36686073 40.64589279 -31.87366426 31.47837193 -30.46875 21.59765625 C-28.34360475 13.61053315 -21.99659139 6.67361337 -14.94921875 2.53515625 C-9.79862246 0.16588195 -5.57879348 -0.03437675 0 0 Z " fill="#429876" transform="translate(53.82421875,87.90234375)"/>
<path d="M0 0 C4.77683045 3.44657387 8.64532126 7.77467832 10.16015625 13.55859375 C11.19898095 20.68094664 11.11649944 27.44590454 10.72265625 34.62109375 C10.67044922 35.67748047 10.61824219 36.73386719 10.56445312 37.82226562 C10.43607805 40.40143757 10.30118577 42.98008811 10.16015625 45.55859375 C5.74940921 45.65821104 1.3392753 45.73041044 -3.07226562 45.77832031 C-4.56977765 45.79831294 -6.06721283 45.82551674 -7.56445312 45.86035156 C-16.92901847 46.07261504 -24.28750166 46.23826911 -31.828125 39.8828125 C-37.64037571 32.69893921 -39.48905274 27.13984902 -39.25390625 17.8515625 C-38.45015821 11.45949081 -35.76424449 5.96893797 -30.96484375 1.62109375 C-21.18457936 -4.83388075 -10.48367266 -6.01745764 0 0 Z " fill="#F3BF6A" transform="translate(73.83984375,35.44140625)"/>
<path d="M0 0 C4.39240301 -0.12470787 8.78383631 -0.21485131 13.17749023 -0.2746582 C14.668233 -0.29961933 16.1588557 -0.33360159 17.64916992 -0.37719727 C27.29192396 -0.65196565 35.06749629 -0.45238392 42.5324707 6.40844727 C48.33869739 12.75105568 49.50513021 18.74530471 49.296875 27.0546875 C48.75761867 32.40467794 46.99158871 36.51261694 44 41 C43.34 41 42.68 41 42 41 C41.67 41.99 41.34 42.98 41 44 C39.2578125 45.1328125 39.2578125 45.1328125 37.125 46.125 C36.42632812 46.45757812 35.72765625 46.79015625 35.0078125 47.1328125 C28.70081742 49.85684539 21.77946235 50.17548132 15.19921875 48.12890625 C8.80012245 45.16726077 4.0836131 41.22049221 0.93994141 34.8527832 C-0.23588638 31.28406953 -0.22524264 28.26795109 -0.1953125 24.51171875 C-0.1924826 23.80852005 -0.18965271 23.10532135 -0.18673706 22.3808136 C-0.17560151 20.14953108 -0.15050997 17.91865983 -0.125 15.6875 C-0.1149616 14.16862562 -0.10583726 12.6497449 -0.09765625 11.13085938 C-0.07568413 7.42044079 -0.04120047 3.71026058 0 0 Z " fill="#F3BF6A" transform="translate(91,88)"/>
<path d="M0 0 C0.99 0.33 1.98 0.66 3 1 C2.25556641 1.61875 2.25556641 1.61875 1.49609375 2.25 C-8.23820822 10.52508023 -13.46070187 16.36978544 -14.625 29.4375 C-14.75691885 31.29118726 -14.88426734 33.14523183 -15 35 C-15.33 35 -15.66 35 -16 35 C-16.47014108 23.73402682 -16.15516821 16.27914321 -8.5625 7.625 C-3.25018038 1.96212121 -3.25018038 1.96212121 0 0 Z " fill="#1E4636" transform="translate(39,90)"/>
<path d="M0 0 C0.99 0.33 1.98 0.66 3 1 C1.75160501 2.105981 0.50120766 3.20970201 -0.75 4.3125 C-1.44609375 4.92738281 -2.1421875 5.54226562 -2.859375 6.17578125 C-4.85114506 7.87314734 -6.88898915 9.45477809 -9 11 C-8.44848637 7.23132354 -6.9602745 5.65408496 -4.125 3.1875 C-3.42632812 2.56230469 -2.72765625 1.93710938 -2.0078125 1.29296875 C-1.34523438 0.86628906 -0.68265625 0.43960938 0 0 Z " fill="#276A45" transform="translate(39,90)"/>
</svg>
